<?xml version="1.0" encoding="utf-8"?>
<!-- Generator: Adobe Illustrator 23.0.0, SVG Export Plug-In . SVG Version: 6.00 Build 0)  -->
<svg version="1.1" id="Layer_1" xmlns="http://www.w3.org/2000/svg" xmlns:xlink="http://www.w3.org/1999/xlink" x="0px" y="0px"
	 viewBox="0 0 24 24" style="enable-background:new 0 0 24 24;" xml:space="preserve">
<style type="text/css">
	.st0{fill:#41479B;stroke:#FFFFFF;stroke-width:0.25;stroke-miterlimit:10;}
	.st1{fill:#F5F5F5;stroke:#FFFFFF;stroke-width:0.25;stroke-miterlimit:10;}
	.st2{fill:#FF4B55;stroke:#FFFFFF;stroke-width:0.25;stroke-miterlimit:10;}
</style>
<path class="st0" d="M22.2,4.1H1.8C0.8,4.1,0,4.9,0,5.9V18c0,1,0.8,1.8,1.8,1.8h20.4c1,0,1.8-0.8,1.8-1.8V5.9
	C24,4.9,23.2,4.1,22.2,4.1z"/>
<path class="st1" d="M24,5.6c-0.1-0.9-0.9-1.5-1.8-1.5h-0.5l-7.7,5v-5H9.9v5l-7.7-5H1.8C0.9,4.1,0.2,4.8,0,5.6l6.6,4.3H0V14h6.6
	L0,18.4c0.1,0.9,0.9,1.5,1.8,1.5h0.5l7.7-5v5h4.1v-5l7.7,5h0.5c0.9,0,1.6-0.6,1.8-1.5l-6.6-4.3H24V9.9h-6.6L24,5.6z"/>
<g>
	<polygon class="st2" points="13.2,4.1 10.8,4.1 10.8,10.8 0,10.8 0,13.2 10.8,13.2 10.8,19.9 13.2,19.9 13.2,13.2 24,13.2 24,10.8 
		13.2,10.8 	"/>
	<path class="st2" d="M1.2,19.7L9.9,14H8.4l-8,5.2C0.6,19.5,0.9,19.6,1.2,19.7z"/>
	<path class="st2" d="M16.2,14.1h-1.5l8.5,5.5c0.2-0.2,0.4-0.4,0.6-0.6L16.2,14.1z"/>
	<path class="st2" d="M0.2,5.1l7.4,4.8h1.5L0.7,4.5C0.5,4.7,0.3,4.9,0.2,5.1z"/>
	<path class="st2" d="M15.6,9.9l8-5.2c-0.2-0.2-0.4-0.4-0.7-0.5l-8.8,5.7H15.6z"/>
</g>
</svg>
